<?xml version="1.0" encoding="UTF-8"?>
<svg width="389px" height="328px" viewBox="0 0 389 328" version="1.1" xmlns="http://www.w3.org/2000/svg" xmlns:xlink="http://www.w3.org/1999/xlink">
    <!-- Generator: Sketch 53.2 (72643) - https://sketchapp.com -->
    <title>Group 5</title>
    <desc>Created with Sketch.</desc>
    <g id="Page-1" stroke="none" stroke-width="1" fill="none" fill-rule="evenodd">
        <g id="heihei" transform="translate(-489.000000, -460.000000)" fill="#029146">
            <g id="Group-5" transform="translate(489.000000, 460.000000)">
                <polygon id="Fill-1" points="320.761835 151 320.761835 307.727332 67.4555783 307.727332 67.9100087 152.340259 47.5925247 152.280898 47.0786026 328 341.078603 328 341.078603 151"></polygon>
                <polygon id="Fill-2" points="195.668678 0 0.0786026201 195.627813 14.4473533 210 195.668678 28.7443747 373.710569 206.819247 388.078603 192.447059"></polygon>
                <path d="M248.078603,311 L227.713471,311 L227.713471,203.230472 L160.443015,203.230472 L160.443015,311 L140.078603,311 L140.078603,201.679661 C140.078603,191.379941 148.513902,183 158.882546,183 L229.274659,183 C239.643303,183 248.078603,191.379941 248.078603,201.679661 L248.078603,311 Z" id="Fill-3"></path>
            </g>
        </g>
    </g>
</svg>